<svg xmlns="http://www.w3.org/2000/svg" viewBox="0 0 800 800"><defs><style>.cls-1{fill:none;}.cls-2{fill:#fff;}</style></defs><g id="Layer_2" data-name="Layer 2"><g id="background"><rect class="cls-1" width="800" height="800"/></g><g id="triangle"><polyline class="cls-2" points="400 400 400 800 800 800 400 400"/></g><g id="logo"><path class="cls-2" d="M427.6,380.5a2.5,2.5,0,0,0-1.7-2,8.9,8.9,0,0,1-6.4-7.6,2.7,2.7,0,0,0-1.9-2.3c-18.5-6.2-31-2-35.2-.1a2.8,2.8,0,0,0-1.6,2.3c-.5,6.2-4.1,7.7-6.2,8a2.3,2.3,0,0,0-1.9,2.1c-4.8,36.3,17,49.6,24.8,53.1a6.3,6.3,0,0,0,5.2.2C430.4,422.9,428.4,388.5,427.6,380.5ZM402,423.9a4.6,4.6,0,0,1-3.8-.1c-5.7-2.5-21.5-11.8-18.1-37.2a1.7,1.7,0,0,1,1.4-1.4c1.6-.3,4.1-1.3,4.5-5.6a2.1,2.1,0,0,1,1.2-1.7c3.1-1.3,12.1-4.2,25.6.1a1.9,1.9,0,0,1,1.4,1.6,6.3,6.3,0,0,0,4.7,5.4,1.7,1.7,0,0,1,1.2,1.4C420.7,391.9,422.1,416.1,402,423.9Z"/><path class="cls-2" d="M398.4,380.7a23.7,23.7,0,0,0-8.6,1.7,1.5,1.5,0,0,0-.9,1.3c-.3,3.4-2.4,4.3-3.6,4.5a1.3,1.3,0,0,0-1.1,1.1c-2.8,20.1,9.6,27.6,14.2,29.6V380.7"/><path class="cls-2" d="M401.9,380.8v38.1c15.7-6.4,14.6-25.4,14.1-29.8a1.4,1.4,0,0,0-1-1.1,5.1,5.1,0,0,1-3.7-4.2,1.5,1.5,0,0,0-1.1-1.3,36,36,0,0,0-8.3-1.7"/><path class="cls-2" d="M400.4,419.3h0"/><path class="cls-2" d="M398.4,380.7a23.7,23.7,0,0,0-8.6,1.7,1.5,1.5,0,0,0-.9,1.3c-.3,3.4-2.4,4.3-3.6,4.5a1.3,1.3,0,0,0-1.1,1.1c-2.8,20.1,9.6,27.6,14.2,29.6V380.7"/><path class="cls-2" d="M401.9,380.8v38.1c15.7-6.4,14.6-25.4,14.1-29.8a1.4,1.4,0,0,0-1-1.1,5.1,5.1,0,0,1-3.7-4.2,1.5,1.5,0,0,0-1.1-1.3,36,36,0,0,0-8.3-1.7"/><path class="cls-2" d="M400.4,419.3h0"/></g></g></svg>